# xmcd CD database file
# Copyright (C) 1993-1998 Ti Kan
#
# Track frame offsets:
#  182
#  17107
#  36832
#  49582
#  70207
#  83257
#  106132
#  115732
#  132157
#  153082
#
# Disc length: 2231 seconds
#
# Revision: 1
# Processed by: cddbd v1.4b41PL1 Copyright (c) Steve Scherf et al.
# Submitted via: CDWizzard Release:4.35
#
DISCID=6d08b50a
DTITLE=Mike Brosnan - On A High Wire
DYEAR=1900
DGENRE=
TTITLE0=Police Dog Blues
TTITLE1=High Wire
TTITLE2=Too Tight
TTITLE3=Death Don't Have No Mercy
TTITLE4=Trouble in Mind
TTITLE5=The Water is Wide
TTITLE6=That'll Never Happen No More
TTITLE7=Cocaine
TTITLE8=Sitting on Top of The World
TTITLE9=That Ain't no Way to Get Along
EXTD=
EXTT0=
EXTT1=
EXTT2=
EXTT3=
EXTT4=
EXTT5=
EXTT6=
EXTT7=
EXTT8=
EXTT9=
PLAYORDER=
